<?xml version="1.0" standalone="no"?>
<!DOCTYPE svg PUBLIC "-//W3C//DTD SVG 20010904//EN"
 "http://www.w3.org/TR/2001/REC-SVG-20010904/DTD/svg10.dtd">
<svg version="1.0" xmlns="http://www.w3.org/2000/svg"
 width="500.000000pt" height="500.000000pt" viewBox="0 0 500.000000 500.000000"
 preserveAspectRatio="xMidYMid meet">

<g transform="translate(0.000000,500.000000) scale(0.100000,-0.100000)"
fill="#000000" stroke="none">
<path d="M993 3318 c-33 -43 -53 -145 -59 -303 -5 -118 -3 -151 13 -212 l19
-72 -43 -43 c-61 -60 -101 -125 -131 -216 -24 -72 -26 -91 -26 -272 -1 -216 9
-288 56 -411 48 -128 156 -226 295 -269 111 -34 333 -61 533 -65 l185 -4 24
-59 c29 -74 83 -147 138 -185 53 -38 123 -41 176 -9 40 26 77 92 77 140 0 47
25 31 39 -24 15 -58 87 -137 146 -159 33 -13 50 -14 79 -7 51 14 112 66 132
112 15 34 23 40 74 54 61 17 211 21 272 7 21 -5 51 -20 68 -34 57 -49 134 -42
174 14 14 21 15 21 25 -17 29 -102 125 -143 220 -95 96 49 201 217 255 405 14
49 28 91 30 94 3 2 44 17 91 33 242 81 420 211 496 360 61 122 72 223 40 351
-73 285 -277 395 -606 326 -67 -14 -142 -50 -192 -93 l-41 -35 -23 36 c-41 67
-199 153 -349 189 -87 22 -369 31 -492 16 -80 -9 -195 -35 -295 -66 l-23 -7 0
160 c0 210 -13 242 -93 242 -77 -1 -164 -53 -320 -194 l-78 -70 -242 0 -242
-1 -37 75 c-54 108 -129 194 -228 262 -84 58 -119 69 -137 46z m131 -88 c111
-88 226 -244 212 -288 -4 -12 -24 -23 -56 -31 -28 -7 -52 -17 -56 -22 -3 -5
-13 -9 -22 -9 -10 0 -41 -16 -69 -35 -29 -19 -55 -35 -59 -35 -4 0 -22 -11
-40 -25 l-33 -25 -11 37 c-18 59 -24 245 -11 316 12 63 30 142 37 165 7 23 33
12 108 -48z m1196 -96 c6 -14 10 -99 10 -190 l0 -164 -40 -26 c-38 -25 -41
-26 -62 -10 -103 75 -163 111 -231 139 l-80 32 69 63 c129 120 228 181 292
182 26 0 34 -5 42 -26z m-462 -250 c160 -32 341 -145 462 -287 83 -98 123
-174 130 -247 4 -40 9 -55 20 -55 21 0 25 76 6 131 -19 57 -77 143 -144 215
l-53 58 23 15 c189 123 667 167 928 85 154 -49 255 -119 285 -197 13 -33 25
-51 34 -50 8 2 13 6 10 10 -6 10 59 76 102 103 85 55 256 85 378 66 176 -27
276 -134 318 -338 15 -69 15 -93 6 -149 -29 -166 -141 -303 -329 -401 -250
-130 -490 -172 -646 -113 -71 27 -163 105 -214 181 -58 88 -74 128 -74 188 0
60 28 99 96 131 39 19 55 21 127 16 275 -20 271 -20 365 9 225 69 362 177 362
285 0 46 -33 37 -41 -11 -14 -89 -142 -180 -337 -239 -76 -23 -99 -23 -344 -4
-87 7 -131 -4 -194 -47 -87 -59 -97 -150 -32 -280 50 -102 156 -213 243 -254
73 -34 201 -50 292 -36 37 6 69 8 72 6 8 -8 -40 -158 -73 -230 -91 -195 -226
-286 -306 -207 -40 41 -49 114 -28 247 2 12 -3 20 -12 20 -9 0 -25 -28 -41
-73 -32 -87 -52 -119 -84 -134 -23 -10 -35 -7 -100 30 -66 36 -91 42 -189 42
-56 0 -126 -6 -156 -14 -55 -14 -69 -10 -70 19 0 23 -52 85 -70 85 -24 0 -26
-22 -4 -41 63 -52 55 -148 -18 -202 -49 -36 -77 -39 -126 -15 -64 31 -102 88
-102 154 0 60 -17 78 -57 63 -17 -6 -25 -5 -27 4 -12 40 -17 47 -31 47 -14 0
-15 -10 -9 -69 12 -122 -26 -181 -117 -181 -40 0 -55 5 -84 32 -44 38 -86 99
-109 157 -20 53 -17 56 63 64 90 10 227 45 289 74 95 45 201 169 202 236 0 35
-30 16 -51 -33 -29 -68 -120 -152 -196 -180 -200 -75 -499 -94 -838 -54 -234
27 -342 69 -433 169 -93 101 -127 243 -126 520 1 169 2 185 28 259 32 95 64
142 147 222 129 122 243 181 394 204 97 15 401 11 483 -6z"/>
<path d="M836 2341 c-12 -19 4 -31 44 -31 45 0 157 -33 222 -66 55 -28 68 -30
68 -9 0 22 -53 51 -143 80 -95 30 -181 42 -191 26z"/>
<path d="M1800 2321 c-88 -28 -180 -73 -180 -87 0 -26 21 -24 87 10 95 47 140
58 262 59 87 2 106 5 106 17 0 24 -202 25 -275 1z"/>
</g>
</svg>
